<svg xmlns="http://www.w3.org/2000/svg" width="760" height="320" viewBox="0 0 760 320" role="img" aria-label="Latency by request">
  <rect width="100%" height="100%" fill="#ffffff"/>
  <text x="48" y="28" font-family="Arial, sans-serif" font-size="18" fill="#111827">Latency by request</text>
  <line x1="48" y1="272" x2="712" y2="272" stroke="#111827" stroke-width="1"/>
  <line x1="48" y1="48" x2="48" y2="272" stroke="#111827" stroke-width="1"/>
  <text x="48" y="306" font-family="Arial, sans-serif" font-size="12" fill="#374151">requests</text>
  <text x="8" y="48" font-family="Arial, sans-serif" font-size="12" fill="#374151">2005.1 ms</text>
  <rect x="48.00" y="67.76" width="18.75" height="204.24" fill="#2563eb"><title>req-000001: 1828.26 ms</title></rect><rect x="68.75" y="167.84" width="18.75" height="104.16" fill="#2563eb"><title>req-000002: 932.34 ms</title></rect><rect x="89.50" y="68.67" width="18.75" height="203.33" fill="#2563eb"><title>req-000003: 1820.04 ms</title></rect><rect x="110.25" y="70.71" width="18.75" height="201.29" fill="#2563eb"><title>req-000004: 1801.78 ms</title></rect><rect x="131.00" y="71.58" width="18.75" height="200.42" fill="#2563eb"><title>req-000005: 1794.03 ms</title></rect><rect x="151.75" y="68.74" width="18.75" height="203.26" fill="#2563eb"><title>req-000006: 1819.49 ms</title></rect><rect x="172.50" y="71.76" width="18.75" height="200.24" fill="#2563eb"><title>req-000007: 1792.39 ms</title></rect><rect x="193.25" y="72.31" width="18.75" height="199.69" fill="#2563eb"><title>req-000008: 1787.48 ms</title></rect><rect x="214.00" y="73.75" width="18.75" height="198.25" fill="#2563eb"><title>req-000009: 1774.59 ms</title></rect><rect x="234.75" y="73.35" width="18.75" height="198.65" fill="#2563eb"><title>req-000010: 1778.22 ms</title></rect><rect x="255.50" y="70.79" width="18.75" height="201.21" fill="#2563eb"><title>req-000011: 1801.11 ms</title></rect><rect x="276.25" y="72.30" width="18.75" height="199.70" fill="#2563eb"><title>req-000012: 1787.55 ms</title></rect><rect x="297.00" y="69.97" width="18.75" height="202.03" fill="#2563eb"><title>req-000013: 1808.46 ms</title></rect><rect x="317.75" y="70.13" width="18.75" height="201.87" fill="#2563eb"><title>req-000014: 1806.99 ms</title></rect><rect x="338.50" y="69.24" width="18.75" height="202.76" fill="#2563eb"><title>req-000015: 1815.02 ms</title></rect><rect x="359.25" y="69.44" width="18.75" height="202.56" fill="#2563eb"><title>req-000016: 1813.16 ms</title></rect><rect x="380.00" y="69.46" width="18.75" height="202.54" fill="#2563eb"><title>req-000017: 1813.03 ms</title></rect><rect x="400.75" y="71.60" width="18.75" height="200.40" fill="#2563eb"><title>req-000018: 1793.82 ms</title></rect><rect x="421.50" y="52.47" width="18.75" height="219.53" fill="#2563eb"><title>req-000019: 1965.07 ms</title></rect><rect x="442.25" y="57.10" width="18.75" height="214.90" fill="#2563eb"><title>req-000020: 1923.64 ms</title></rect><rect x="463.00" y="54.73" width="18.75" height="217.27" fill="#2563eb"><title>req-000021: 1944.89 ms</title></rect><rect x="483.75" y="58.91" width="18.75" height="213.09" fill="#2563eb"><title>req-000022: 1907.48 ms</title></rect><rect x="504.50" y="53.97" width="18.75" height="218.03" fill="#2563eb"><title>req-000023: 1951.64 ms</title></rect><rect x="525.25" y="48.00" width="18.75" height="224.00" fill="#2563eb"><title>req-000024: 2005.11 ms</title></rect><rect x="546.00" y="59.74" width="18.75" height="212.26" fill="#2563eb"><title>req-000025: 1899.98 ms</title></rect><rect x="566.75" y="60.99" width="18.75" height="211.01" fill="#2563eb"><title>req-000026: 1888.84 ms</title></rect><rect x="587.50" y="51.98" width="18.75" height="220.02" fill="#2563eb"><title>req-000027: 1969.47 ms</title></rect><rect x="608.25" y="56.00" width="18.75" height="216.00" fill="#2563eb"><title>req-000028: 1933.48 ms</title></rect><rect x="629.00" y="65.51" width="18.75" height="206.49" fill="#2563eb"><title>req-000029: 1848.33 ms</title></rect><rect x="649.75" y="58.02" width="18.75" height="213.98" fill="#2563eb"><title>req-000030: 1915.39 ms</title></rect><rect x="670.50" y="66.06" width="18.75" height="205.94" fill="#2563eb"><title>req-000031: 1843.41 ms</title></rect><rect x="691.25" y="63.09" width="18.75" height="208.91" fill="#2563eb"><title>req-000032: 1870.03 ms</title></rect>
</svg>
